<svg width="36" height="36" viewBox="0 0 36 36" fill="none" xmlns="http://www.w3.org/2000/svg">
<path opacity="0.995183" fill-rule="evenodd" clip-rule="evenodd" d="M18 36C9.51471 36 5.27207 36 2.63605 33.3639C-2.38419e-07 30.728 0 26.4852 0 18C0 9.51471 -2.38419e-07 5.27207 2.63605 2.63605C5.27207 -2.38419e-07 9.51471 0 18 0C26.4852 0 30.728 -2.38419e-07 33.3639 2.63605C36 5.27207 36 9.51471 36 18C36 26.4852 36 30.728 33.3639 33.3639C30.728 36 26.4852 36 18 36ZM18 11.25C18.7456 11.25 19.35 11.8544 19.35 12.6V16.65H23.4C24.1456 16.65 24.75 17.2544 24.75 18C24.75 18.7456 24.1456 19.35 23.4 19.35H19.35V23.4C19.35 24.1456 18.7456 24.75 18 24.75C17.2544 24.75 16.65 24.1456 16.65 23.4V19.35H12.6C11.8544 19.35 11.25 18.7456 11.25 18C11.25 17.2544 11.8544 16.65 12.6 16.65H16.65V12.6C16.65 11.8544 17.2544 11.25 18 11.25Z" fill="#EAF60C"/>
</svg>
