<svg width="20" height="20" viewBox="0 0 20 20" fill="none" xmlns="http://www.w3.org/2000/svg">
<path d="M11.6248 8.21856C11.6248 9.11474 10.896 9.84356 9.99983 9.84356C9.10364 9.84356 8.37483 9.11474 8.37483 8.21856C8.37483 7.32237 9.10364 6.59355 9.99983 6.59355C10.896 6.59355 11.6248 7.32237 11.6248 8.21856ZM17.4488 7.17612C17.2546 6.82593 16.9963 6.5578 16.703 6.36768C16.1797 6.02968 15.901 5.40812 16.0391 4.80118C16.118 4.45261 16.1131 4.07236 16.0001 3.67911C15.8003 2.98117 15.2315 2.41242 14.5336 2.21255C14.1403 2.09961 13.7601 2.09474 13.4123 2.17355C12.8046 2.31167 12.183 2.0338 11.845 1.50974C11.6557 1.21642 11.3868 0.958047 11.0374 0.76386C10.402 0.412047 9.59845 0.412047 8.96308 0.76386C8.61289 0.958047 8.34476 1.21642 8.15545 1.50974C7.81745 2.03299 7.19589 2.31167 6.58814 2.17355C6.24039 2.09474 5.86014 2.09961 5.46688 2.21255C4.76895 2.41242 4.2002 2.98118 4.00032 3.67911C3.88738 4.07236 3.88251 4.45343 3.96132 4.80118C4.09945 5.40893 3.82076 6.03049 3.29751 6.36768C3.00338 6.55699 2.74582 6.82593 2.55163 7.17612C2.37369 7.49624 2.28757 7.86024 2.28919 8.22343C2.28757 8.58662 2.37451 8.94981 2.55163 9.27075C2.74582 9.62093 3.00419 9.88906 3.29751 10.0792C3.82076 10.4172 4.09945 11.0387 3.96132 11.6457C3.88251 11.9942 3.88738 12.3745 4.00032 12.7686C4.2002 13.4665 4.76895 14.0353 5.46688 14.2351C5.86014 14.3481 6.24039 14.3529 6.58814 14.2741C7.19589 14.136 7.81745 14.4139 8.15545 14.9379C8.34476 15.2313 8.61289 15.4896 8.96308 15.6838C9.59845 16.0356 10.4028 16.0356 11.0374 15.6838C11.3876 15.4896 11.6557 15.2313 11.845 14.9379C12.183 14.4147 12.8046 14.136 13.4123 14.2741C13.7601 14.3529 14.1403 14.3481 14.5336 14.2351C15.2315 14.0353 15.8003 13.4665 16.0001 12.7686C16.1131 12.3753 16.118 11.9942 16.0391 11.6457C15.901 11.0379 16.1797 10.4164 16.703 10.0792C16.9971 9.88987 17.2547 9.62093 17.4488 9.27075C17.6268 8.95062 17.7129 8.58662 17.7113 8.22343C17.7129 7.86024 17.626 7.49706 17.4488 7.17612ZM9.99089 11.4702C8.19851 11.4702 6.74089 10.0126 6.74089 8.22018C6.74089 6.4278 8.19851 4.97018 9.99089 4.97018C11.7833 4.97018 13.2409 6.4278 13.2409 8.22018C13.2409 10.0126 11.7833 11.4702 9.99089 11.4702ZM6.83189 15.8821C6.24201 15.9974 5.61638 15.9682 5.0192 15.7968C3.86057 15.4653 2.92619 14.5731 2.51994 13.4454L0.646316 15.2516C-0.143435 16.0137 0.317253 17.3511 1.40925 17.464L2.84332 17.6119L3.02044 18.8859C3.16588 19.9348 4.44313 20.3711 5.20038 19.6309L7.9637 16.9529C7.51439 16.6645 7.12439 16.3159 6.83189 15.8821ZM12.0368 16.9529L14.8001 19.6309C15.5573 20.3711 16.8346 19.9348 16.98 18.8859L17.1572 17.6119L18.5912 17.464C19.6832 17.3511 20.1439 16.0137 19.3542 15.2516L17.4805 13.4454C17.0743 14.5731 16.1399 15.4653 14.9813 15.7968C14.3841 15.9682 13.7585 15.9974 13.1686 15.8821C12.8761 16.3159 12.4861 16.6645 12.0368 16.9529Z" fill="white"/>
</svg>
