<svg width="18" height="22" viewBox="0 0 18 22" fill="none" xmlns="http://www.w3.org/2000/svg">
<path d="M6.51953 19.0658C6.72731 20.2775 7.77003 21.1568 8.99889 21.1568C10.228 21.1568 11.2711 20.2775 11.4789 19.0658L11.4916 18.992H6.50684L6.51953 19.0658Z" fill="white"/>
<path d="M17.4815 15.6014C17.2782 15.398 17.0709 15.2259 16.8704 15.0594C16.0273 14.3592 15.299 13.7545 15.299 11.2439V9.25236C15.299 6.32396 13.2415 3.75439 10.3946 3.11013C10.5087 2.88636 10.5666 2.65116 10.5666 2.40965C10.5666 1.54575 9.86356 0.842773 8.99934 0.842773C8.13536 0.842773 7.43246 1.54575 7.43246 2.40965C7.43246 2.65132 7.49023 2.88648 7.60442 3.11013C4.75748 3.75439 2.70008 6.32396 2.70008 9.25236V11.2439C2.70008 13.7545 1.97179 14.3592 1.1286 15.0594C0.928154 15.2259 0.720886 15.398 0.517509 15.6014L0.499023 15.6199V17.5957H17.5V15.6199L17.4815 15.6014Z" fill="white"/>
</svg>
