<svg width="18" height="22" viewBox="0 0 18 22" fill="none" xmlns="http://www.w3.org/2000/svg">
<path d="M6.52051 19.0663C6.72829 20.278 7.77101 21.1573 8.99986 21.1573C10.229 21.1573 11.272 20.278 11.4798 19.0663L11.4925 18.9926H6.50781L6.52051 19.0663Z" fill="white"/>
<path d="M17.4825 15.6019C17.2791 15.3984 17.0719 15.2264 16.8714 15.0599C16.0282 14.3597 15.2999 13.755 15.2999 11.2443V9.25285C15.2999 6.32445 13.2424 3.75488 10.3956 3.11062C10.5097 2.88685 10.5676 2.65165 10.5676 2.41014C10.5676 1.54624 9.86454 0.843262 9.00032 0.843262C8.13634 0.843262 7.43344 1.54624 7.43344 2.41014C7.43344 2.65181 7.49121 2.88697 7.6054 3.11062C4.75845 3.75488 2.70106 6.32445 2.70106 9.25285V11.2443C2.70106 13.755 1.97277 14.3597 1.12957 15.0599C0.929131 15.2264 0.721863 15.3984 0.518486 15.6019L0.5 15.6204V17.5962H17.501V15.6204L17.4825 15.6019Z" fill="white"/>
</svg>
