<svg width="18" height="20" viewBox="0 0 18 20" fill="none" xmlns="http://www.w3.org/2000/svg">
<path d="M5.34766 17.5001C6.00783 19.0181 7.50552 20 9.16089 20C10.8162 20 12.3139 19.0181 12.9741 17.5001H5.34766Z" fill="black"/>
<path d="M17.8208 10.4578L16.3741 5.68875C15.421 2.25686 12.2558 -0.0869571 8.69511 0.00247359C5.13444 0.0919035 2.09088 2.59166 1.31122 6.06708L0.187918 10.6811C-0.114587 11.9234 0.170006 13.2357 0.959915 14.2411C1.74982 15.2464 2.95759 15.8335 4.23614 15.8335H13.8334C15.1528 15.8335 16.3941 15.2087 17.1801 14.149C17.9659 13.0895 18.2036 11.7203 17.8208 10.4578Z" fill="black"/>
</svg>
