<svg width="20" height="19" viewBox="0 0 20 19" fill="none" xmlns="http://www.w3.org/2000/svg">
<path d="M16.1279 2.15299C14.1306 0.490986 11.5295 -0.260418 8.9537 0.0805098C4.06208 0.715993 0.503989 5.03986 0.821992 9.96232C1.14 14.8848 5.22485 18.7149 10.1576 18.7157H15.6015C17.7536 18.7131 19.4975 16.9692 19.5001 14.8171V8.82034V8.77121C19.3333 6.19544 18.1137 3.80187 16.1279 2.15299ZM7.02468 5.46054H10.1435C10.5742 5.46054 10.9233 5.80963 10.9233 6.24026C10.9233 6.67088 10.5742 7.01997 10.1435 7.01997H7.02468C6.59406 7.01997 6.24497 6.67088 6.24497 6.24026C6.24497 5.80963 6.59406 5.46054 7.02468 5.46054ZM13.2624 13.2577H7.02468C6.59406 13.2577 6.24497 12.9086 6.24497 12.478C6.24497 12.0474 6.59406 11.6983 7.02468 11.6983H13.2624C13.693 11.6983 14.0421 12.0474 14.0421 12.478C14.0421 12.9086 13.693 13.2577 13.2624 13.2577ZM13.2624 10.1388H7.02468C6.59406 10.1388 6.24497 9.78974 6.24497 9.35912C6.24497 8.92849 6.59406 8.5794 7.02468 8.5794H13.2624C13.693 8.5794 14.0421 8.92849 14.0421 9.35912C14.0421 9.78974 13.693 10.1388 13.2624 10.1388Z" fill="white"/>
</svg>
