<svg width="20" height="20" viewBox="0 0 20 20" fill="none" xmlns="http://www.w3.org/2000/svg">
<path d="M16.1279 2.65299C14.1306 0.990986 11.5295 0.239582 8.9537 0.58051C4.06208 1.21599 0.503989 5.53986 0.821992 10.4623C1.14 15.3848 5.22485 19.2149 10.1576 19.2157H15.6015C17.7536 19.2131 19.4975 17.4692 19.5001 15.3171V9.32034V9.27121C19.3333 6.69544 18.1137 4.30187 16.1279 2.65299ZM7.02468 5.96054H10.1435C10.5742 5.96054 10.9233 6.30963 10.9233 6.74026C10.9233 7.17088 10.5742 7.51997 10.1435 7.51997H7.02468C6.59406 7.51997 6.24497 7.17088 6.24497 6.74026C6.24497 6.30963 6.59406 5.96054 7.02468 5.96054ZM13.2624 13.7577H7.02468C6.59406 13.7577 6.24497 13.4086 6.24497 12.978C6.24497 12.5474 6.59406 12.1983 7.02468 12.1983H13.2624C13.693 12.1983 14.0421 12.5474 14.0421 12.978C14.0421 13.4086 13.693 13.7577 13.2624 13.7577ZM13.2624 10.6388H7.02468C6.59406 10.6388 6.24497 10.2897 6.24497 9.85912C6.24497 9.42849 6.59406 9.0794 7.02468 9.0794H13.2624C13.693 9.0794 14.0421 9.42849 14.0421 9.85912C14.0421 10.2897 13.693 10.6388 13.2624 10.6388Z" fill="black"/>
</svg>
