<svg width="20" height="20" viewBox="0 0 20 20" fill="none" xmlns="http://www.w3.org/2000/svg">
<path d="M12.989 7.59374L10.0004 19.625L7.01186 7.59374H12.989ZM9.17669 0.374969L7.13538 5.98957H12.8655L10.8242 0.374969H9.17669ZM14.5723 5.98957H19.4979C19.4239 5.76073 19.3158 5.54439 19.1771 5.3479L16.3449 1.38319C15.8934 0.750665 15.1642 0.375153 14.387 0.37497L12.531 0.374969L14.5723 5.98957ZM14.6405 7.59374L12.4227 16.6573L19.1113 8.23541C19.2617 8.0411 19.381 7.82464 19.465 7.59374L14.6405 7.59374ZM5.36036 7.59374H0.535815C0.621195 7.82466 0.741578 8.04108 0.892744 8.23541L7.57813 16.6573L5.36036 7.59374ZM5.42854 5.98957L7.46985 0.374969H5.61382C4.83724 0.374969 4.10794 0.750309 3.65626 1.38273L0.823764 5.3479C0.684784 5.54422 0.576593 5.7606 0.50293 5.98957L5.42854 5.98957Z" fill="white"/>
</svg>
