<svg width="22" height="13" viewBox="0 0 22 13" fill="none" xmlns="http://www.w3.org/2000/svg">
<path d="M10.7501 4.64653C11.7789 4.64653 12.6171 5.48565 12.6171 6.51355C12.6171 7.54145 11.778 8.35373 10.7501 8.35373C9.72219 8.35373 8.90992 7.54145 8.90992 6.51355C8.90992 5.48565 9.72219 4.64653 10.7501 4.64653ZM10.7501 0.0456543C16.8664 0.0456543 21.2768 5.78267 21.2768 5.78267C21.5747 6.16197 21.5747 6.83829 21.2768 7.21671C21.2768 7.21671 16.8655 12.9537 10.7501 12.9537C4.63465 12.9537 0.223419 7.21671 0.223419 7.21671C-0.074473 6.83742 -0.074473 6.1611 0.223419 5.78267C0.223419 5.78267 4.63465 0.0456543 10.7501 0.0456543ZM10.7501 11.1413C13.2943 11.1413 15.3778 9.05776 15.3778 6.51355C15.3778 3.96934 13.2943 1.88583 10.7501 1.88583C8.20589 1.88583 6.12238 3.96934 6.12238 6.51355C6.12238 9.05776 8.20589 11.1413 10.7501 11.1413Z" fill="black"/>
</svg>
