<svg width="22" height="14" viewBox="0 0 22 14" fill="none" xmlns="http://www.w3.org/2000/svg">
<path d="M10.7501 5.14653C11.7789 5.14653 12.6171 5.98565 12.6171 7.01355C12.6171 8.04145 11.778 8.85373 10.7501 8.85373C9.72219 8.85373 8.90992 8.04145 8.90992 7.01355C8.90992 5.98565 9.72219 5.14653 10.7501 5.14653ZM10.7501 0.545654C16.8664 0.545654 21.2768 6.28267 21.2768 6.28267C21.5747 6.66197 21.5747 7.33829 21.2768 7.71671C21.2768 7.71671 16.8655 13.4537 10.7501 13.4537C4.63465 13.4537 0.223419 7.71671 0.223419 7.71671C-0.074473 7.33742 -0.074473 6.6611 0.223419 6.28267C0.223419 6.28267 4.63465 0.545654 10.7501 0.545654ZM10.7501 11.6413C13.2943 11.6413 15.3778 9.55776 15.3778 7.01355C15.3778 4.46934 13.2943 2.38583 10.7501 2.38583C8.20589 2.38583 6.12238 4.46934 6.12238 7.01355C6.12238 9.55776 8.20589 11.6413 10.7501 11.6413Z" fill="white"/>
</svg>
