<svg width="22" height="20" viewBox="0 0 22 20" fill="none" xmlns="http://www.w3.org/2000/svg">
<path fill-rule="evenodd" clip-rule="evenodd" d="M4.37436 2.38992C2.71537 3.14825 1.5 4.95196 1.5 7.10283C1.5 9.30022 2.39922 10.9939 3.68829 12.4455C4.75072 13.6418 6.03684 14.6333 7.29113 15.6003C7.58904 15.83 7.88515 16.0583 8.17605 16.2876C8.70208 16.7023 9.1713 17.0662 9.6236 17.3305C10.0761 17.595 10.4404 17.7157 10.75 17.7157C11.0596 17.7157 11.4239 17.595 11.8764 17.3305C12.3287 17.0662 12.7979 16.7023 13.324 16.2876C13.6149 16.0583 13.911 15.83 14.2089 15.6003C15.4632 14.6333 16.7493 13.6418 17.8117 12.4455C19.1008 10.9939 20 9.30022 20 7.10283C20 4.95196 18.7846 3.14825 17.1256 2.38992C15.5139 1.65321 13.3483 1.84831 11.2904 3.98647C11.149 4.13336 10.9539 4.21636 10.75 4.21636C10.5461 4.21636 10.351 4.13336 10.2096 3.98647C8.15166 1.84831 5.98607 1.65321 4.37436 2.38992ZM10.75 2.42455C8.43795 0.355972 5.84896 0.0666017 3.75076 1.02569C1.53471 2.03865 0 4.39076 0 7.10283C0 9.76832 1.1105 11.8018 2.56672 13.4415C3.73287 14.7546 5.16022 15.8537 6.42083 16.8243C6.70659 17.0443 6.98378 17.2578 7.24742 17.4656C7.75965 17.8694 8.30954 18.3 8.8668 18.6256C9.4239 18.9511 10.0596 19.2157 10.75 19.2157C11.4404 19.2157 12.0761 18.9511 12.6332 18.6256C13.1905 18.3 13.7403 17.8694 14.2526 17.4656C14.5162 17.2578 14.7934 17.0443 15.0792 16.8243C16.3398 15.8537 17.7671 14.7546 18.9333 13.4415C20.3895 11.8018 21.5 9.76832 21.5 7.10283C21.5 4.39076 19.9653 2.03865 17.7492 1.02569C15.651 0.0666017 13.0621 0.355972 10.75 2.42455Z" fill="black"/>
</svg>
