<svg width="20" height="20" viewBox="0 0 20 20" fill="none" xmlns="http://www.w3.org/2000/svg">
<path d="M9.9812 19.7693C15.3766 19.7693 19.7505 15.3954 19.7505 10C19.7505 4.60457 15.3766 0.230711 9.9812 0.230713C4.58577 0.230713 0.211913 4.60457 0.211914 10C0.21775 15.393 4.58819 19.7635 9.9812 19.7693ZM9.9812 4.30125C10.6556 4.30125 11.2024 4.84798 11.2024 5.52241C11.2024 6.19684 10.6556 6.74357 9.9812 6.74357C9.30677 6.74357 8.76004 6.19684 8.76004 5.52241C8.76004 4.84798 9.30677 4.30125 9.9812 4.30125ZM9.16709 8.37179H9.9812C10.8804 8.37179 11.6094 9.10076 11.6094 10V14.8846C11.6094 15.3343 11.2449 15.6988 10.7953 15.6988C10.3457 15.6988 9.9812 15.3343 9.9812 14.8846V10H9.16709C8.71747 10 8.35299 9.63551 8.35299 9.18589C8.35299 8.73627 8.71747 8.37179 9.16709 8.37179Z" fill="white"/>
</svg>
