<svg width="16" height="20" viewBox="0 0 16 20" fill="none" xmlns="http://www.w3.org/2000/svg">
<path d="M11.2501 1.87495H11.1111C10.7756 0.929193 9.87206 0.249939 8.81255 0.249939H7.18754C6.12803 0.249939 5.22453 0.929193 4.88896 1.87495H4.75003C2.50995 1.87495 0.6875 3.6974 0.6875 5.93748V15.6875C0.6875 17.9276 2.50995 19.7501 4.75003 19.7501H11.2501C13.4901 19.7501 15.3126 17.9276 15.3126 15.6875V5.93748C15.3126 3.6974 13.4901 1.87495 11.2501 1.87495ZM3.93752 14.0625C2.87476 14.0577 2.87476 12.4424 3.93752 12.4375C5.00028 12.4424 5.00028 14.0577 3.93752 14.0625ZM4.47946 10C4.1179 10 3.77746 9.85944 3.52233 9.6035L2.70333 8.83081C2.37751 8.52287 2.36207 8.00855 2.67001 7.68192C2.97795 7.3553 3.49227 7.34067 3.8189 7.64861L4.47784 8.27099L5.81035 6.97911C6.1321 6.6671 6.64641 6.67442 6.95923 6.99698C7.27123 7.31873 7.26392 7.83305 6.94135 8.14586L5.42847 9.61244C5.18228 9.85944 4.84103 10 4.47946 10ZM12.0626 14.0625H7.18754C6.12478 14.0577 6.1256 12.4424 7.18754 12.4375H12.0626C13.1253 12.4424 13.1245 14.0577 12.0626 14.0625ZM12.0626 10H8.81255C7.74979 9.99513 7.75061 8.37987 8.81255 8.37499H12.0626C13.1253 8.37987 13.1245 9.99512 12.0626 10Z" fill="white"/>
</svg>
