<svg width="14" height="17" viewBox="0 0 14 17" fill="none" xmlns="http://www.w3.org/2000/svg">
<g opacity="0.5">
<path d="M11.9254 5.78404V4.8063C11.9254 2.15186 9.77353 -6.54807e-07 7.11908 0C4.46463 0 2.31277 2.15186 2.31278 4.80631L2.31277 5.78404C1.06317 6.32941 0.254723 7.56257 0.25293 8.92599V13.0457C0.2552 14.9408 1.79091 16.4765 3.68601 16.4788H10.5522C12.4472 16.4765 13.983 14.9408 13.9852 13.0457L13.9852 8.92599C13.9834 7.56257 13.175 6.32941 11.9254 5.78404ZM3.686 4.8063C3.686 2.91027 5.22304 1.37323 7.11908 1.37323C9.01511 1.37323 10.5522 2.91027 10.5522 4.80631V5.49292H3.686V4.8063ZM12.612 13.0457C12.612 14.1833 11.6898 15.1055 10.5522 15.1055H3.686C2.54838 15.1055 1.62616 14.1833 1.62616 13.0457L1.62616 8.92599C1.62616 7.78837 2.54838 6.86615 3.68601 6.86615H10.5522C11.6898 6.86615 12.612 7.78837 12.612 8.92599V13.0457Z" fill="white"/>
<path d="M7.11923 9.61261C6.74002 9.61261 6.43262 9.92002 6.43262 10.2992V11.6725C6.43262 12.0517 6.74002 12.3591 7.11923 12.3591C7.49844 12.3591 7.80585 12.0517 7.80585 11.6725V10.2992C7.80585 9.92002 7.49844 9.61261 7.11923 9.61261Z" fill="white"/>
</g>
</svg>
