<svg width="20" height="20" viewBox="0 0 20 20" fill="none" xmlns="http://www.w3.org/2000/svg">
<path opacity="0.5" d="M19.623 10.0615C19.623 14.5688 19.623 16.8226 18.2228 18.2228C16.8226 19.623 14.5688 19.623 10.0615 19.623C5.55417 19.623 3.3005 19.623 1.90026 18.2228C0.5 16.8226 0.5 14.5688 0.5 10.0615C0.5 5.55417 0.5 3.3005 1.90026 1.90026C3.3005 0.5 5.55417 0.5 10.0615 0.5C14.5688 0.5 16.8226 0.5 18.2228 1.90026C19.623 3.3005 19.623 5.55417 19.623 10.0615Z" fill="white"/>
<path d="M5.28059 14.6032C4.88454 14.6032 4.56348 14.9243 4.56348 15.3204C4.56348 15.7164 4.88454 16.0375 5.28059 16.0375H11.0175C11.4135 16.0375 11.7346 15.7164 11.7346 15.3204C11.7346 14.9243 11.4135 14.6032 11.0175 14.6032H5.28059Z" fill="white"/>
<path d="M5.28059 11.2567C4.88454 11.2567 4.56348 11.5778 4.56348 11.9738C4.56348 12.3699 4.88454 12.6909 5.28059 12.6909H13.886C14.282 12.6909 14.6031 12.3699 14.6031 11.9738C14.6031 11.5778 14.282 11.2567 13.886 11.2567H5.28059Z" fill="white"/>
<path d="M19.6231 3.36846C19.6231 4.95266 18.3389 6.23691 16.7547 6.23691C15.1704 6.23691 13.8862 4.95266 13.8862 3.36846C13.8862 1.78426 15.1704 0.5 16.7547 0.5C18.3389 0.5 19.6231 1.78426 19.6231 3.36846Z" fill="white"/>
</svg>
