<svg width="11" height="13" viewBox="0 0 11 13" fill="none" xmlns="http://www.w3.org/2000/svg">
<path d="M5.50448 0C5.98709 0.00451851 6.44851 0.201355 6.78874 0.547857L10.7332 4.53143C10.9041 4.70541 11 4.94076 11 5.18607C11 5.43139 10.9041 5.66673 10.7332 5.84071C10.648 5.92775 10.5465 5.99683 10.4347 6.04397C10.3229 6.09111 10.203 6.11538 10.0819 6.11538C9.96085 6.11538 9.84095 6.09111 9.72916 6.04397C9.61738 5.99683 9.51592 5.92775 9.43064 5.84071L6.42181 2.78571L6.42181 12.0714C6.42181 12.3177 6.32516 12.5539 6.15313 12.728C5.9811 12.9022 5.74777 13 5.50448 13C5.26119 13 5.02787 12.9022 4.85583 12.728C4.6838 12.5539 4.58715 12.3177 4.58715 12.0714L4.58715 2.78571L1.56915 5.84071C1.39763 6.01557 1.16451 6.11429 0.921088 6.11516C0.677662 6.11603 0.443865 6.01898 0.271129 5.84536C0.0983925 5.67174 0.000865936 5.43576 5.72205e-06 5.18935C-0.000854492 4.94295 0.0950222 4.70628 0.266542 4.53143L4.21105 0.547857C4.55353 0.199097 5.01869 0.00207329 5.50448 0Z" fill="black"/>
</svg>
