<svg width="19" height="20" viewBox="0 0 19 20" fill="none" xmlns="http://www.w3.org/2000/svg">
<path d="M0.284697 9.98937C0.276738 11.9891 1.89143 13.6167 3.89122 13.6247C4.8122 13.6283 5.69999 13.2809 6.37384 12.6531L11.7698 15.0894C11.7323 15.2911 11.7117 15.4956 11.7083 15.7008C11.7019 17.7143 13.329 19.3518 15.3426 19.3582C17.3561 19.3646 18.9936 17.7374 19 15.7239C19.0063 13.7103 17.3792 12.0729 15.3657 12.0665C14.1626 12.0627 13.0352 12.6526 12.3524 13.643L7.28278 11.3539C7.64287 10.4844 7.64425 9.50778 7.28668 8.63725L12.3493 6.33648C13.4893 7.98527 15.7501 8.39768 17.3988 7.25768C19.0476 6.11768 19.46 3.85696 18.32 2.20817C17.18 0.559381 14.9193 0.146973 13.2705 1.28697C12.2885 1.9659 11.7033 3.08421 11.7051 4.27799C11.7084 4.48346 11.7293 4.68824 11.7675 4.89017L6.38553 7.33578C4.92739 5.96657 2.63538 6.03868 1.26617 7.49682C0.632484 8.17173 0.281265 9.06361 0.284697 9.98937Z" fill="white"/>
</svg>
