<?xml version="1.0" encoding="UTF-8" standalone="no"?>
<svg
   width="16.200001"
   height="16.999998"
   viewBox="0 0 16.200001 16.999998"
   fill="none"
   version="1.1"
   id="svg3"
   xmlns="http://www.w3.org/2000/svg"
   xmlns:svg="http://www.w3.org/2000/svg">
  <g
     opacity="0.5"
     filter="url(#filter0_d_1_2338)"
     id="g1"
     transform="translate(-7,-1.8)">
    <path
       d="m 10.5569,7.75618 c 0.0098,0.17032 0.0093,0.32887 0.0312,0.48422 0.0249,0.17393 0.0855,0.33438 0.2813,0.39009 0.0337,0.00971 0.0703,0.01506 0.1055,0.01647 0.0991,0.00395 0.1982,0.00656 0.2973,0.00657 1.2027,1.2e-4 2.4058,-0.01991 3.6079,0.00499 1.1616,0.02406 2.3228,-0.00334 3.4839,0.0194 0.5274,0.01031 1.0498,0.06713 1.5542,0.2333 0.3897,0.12845 0.7686,0.28694 1.1035,0.52638 0.3936,0.2817 0.7285,0.6227 0.9971,1.0315 0.2295,0.3503 0.3799,0.7303 0.5054,1.1262 0.1665,0.5256 0.2065,1.0661 0.2124,1.6106 0.0039,0.3871 -0.0034,0.7749 -0.022,1.1616 -0.0317,0.6708 -0.1733,1.3174 -0.479,1.9203 -0.0625,0.1233 -0.1455,0.2367 -0.2212,0.3531 -0.0732,0.1131 -0.146,0.2273 -0.2261,0.3356 -0.188,0.2543 -0.4038,0.4833 -0.6445,0.6892 -0.4082,0.349 -0.873,0.5767 -1.4004,0.6845 -0.2046,0.0418 -0.4082,0.0579 -0.6152,0.0625 -0.4141,0.0093 -0.8282,0.0261 -1.2422,0.0398 -0.0274,9e-4 -0.0542,0.0035 -0.0811,0.0038 -0.9819,0.0085 -1.9638,0.0233 -2.9453,0.0224 -0.4951,-5e-4 -0.9907,-0.021 -1.4853,-0.0479 -0.4082,-0.0222 -0.8155,-0.069 -1.2232,-0.1012 C 11.8186,18.3034 11.488,18.2627 11.1697,18.163 10.9172,18.084 10.6619,18.0054 10.4231,17.8938 10.1101,17.7477 9.80786,17.5739 9.53735,17.3575 9.21021,17.096 8.91284,16.8027 8.6565,16.4679 8.45093,16.1991 8.2771,15.9134 8.12232,15.6128 7.84448,15.075 7.6814,14.5042 7.60278,13.9079 7.57349,13.6854 7.55835,13.4604 7.54859,13.2361 7.47192,11.4667 7.50806,9.69639 7.51148,7.9264 7.51245,7.56202 7.52661,7.1967 7.5564,6.8336 7.59692,6.33944 7.7063,5.85829 7.88013,5.39212 8.04126,4.95938 8.25806,4.55453 8.52564,4.18202 8.75855,3.85772 9.02759,3.5607 9.32837,3.29234 9.65259,3.00259 10.011,2.76504 10.3928,2.5635 10.7844,2.35704 11.2063,2.23498 11.635,2.1268 12.1252,2.00326 12.6228,1.99608 13.1199,1.9812 14.0652,1.95288 15.011,1.93242 15.9563,1.92991 c 1.2837,-0.0034 2.5674,0.01242 3.8516,0.02239 0.1074,8.2e-4 0.2153,0.01384 0.3213,0.0314 0.2573,0.04251 0.4213,0.22894 0.4521,0.46988 0.0249,0.19139 0.0405,0.38522 0.0415,0.57806 0.002,0.42771 -0.0063,0.8555 -0.0142,1.28318 -0.0014,0.08008 -0.0175,0.1611 -0.0366,0.23944 -0.0732,0.30765 -0.2466,0.40881 -0.5512,0.44647 -0.1958,0.02419 -0.3946,0.02933 -0.5928,0.02953 -1.9951,0.00212 -3.9912,6.4e-4 -5.9863,0.00222 -0.4249,3.4e-4 -0.8482,0.03673 -1.2466,0.18993 -0.3609,0.13864 -0.6978,0.31778 -0.9717,0.6104 -0.2827,0.30293 -0.4434,0.65757 -0.5576,1.04704 -0.083,0.28381 -0.1109,0.57062 -0.1089,0.87633 z m 0.206,6.10022 c 0.1133,0.3334 0.2979,0.6226 0.5411,0.8764 0.1801,0.1883 0.3994,0.3178 0.6269,0.439 0.2305,0.123 0.4771,0.1945 0.7334,0.2103 0.4087,0.0253 0.8189,0.0415 1.228,0.0415 1.5489,0 3.0977,-0.0076 4.6465,-0.0144 0.0938,-4e-4 0.189,-0.0127 0.2808,-0.0312 0.1553,-0.0313 0.2998,-0.0852 0.4228,-0.1951 0.2495,-0.222 0.3511,-0.5078 0.3662,-0.8279 0.0166,-0.3596 0.0274,-0.7199 0.0245,-1.0798 -0.002,-0.2332 -0.0186,-0.4683 -0.0533,-0.6989 -0.059,-0.3938 -0.312,-0.7095 -0.7387,-0.7664 -0.2134,-0.0284 -0.4297,-0.0484 -0.6451,-0.0488 -2.3681,-0.0046 -4.7363,-0.0046 -7.1049,-0.0056 -0.0674,0 -0.1353,-6e-4 -0.2022,0.0054 -0.2046,0.0182 -0.3154,0.1165 -0.3115,0.328 0.0049,0.2565 0.0088,0.5131 0.0068,0.7697 -0.0019,0.3368 0.0708,0.6595 0.1787,0.9978 z"
       fill="#ffffff"
       id="path1" />
  </g>
  <defs
     id="defs3">
    <filter
       id="filter0_d_1_2338"
       x="0"
       y="0.429443"
       width="30.237499"
       height="31.549299"
       filterUnits="userSpaceOnUse"
       color-interpolation-filters="sRGB">
      <feFlood
         flood-opacity="0"
         result="BackgroundImageFix"
         id="feFlood1" />
      <feColorMatrix
         in="SourceAlpha"
         type="matrix"
         values="0 0 0 0 0 0 0 0 0 0 0 0 0 0 0 0 0 0 127 0"
         result="hardAlpha"
         id="feColorMatrix1" />
      <feOffset
         dy="6"
         id="feOffset1" />
      <feGaussianBlur
         stdDeviation="3.75"
         id="feGaussianBlur1" />
      <feComposite
         in2="hardAlpha"
         operator="out"
         id="feComposite1" />
      <feColorMatrix
         type="matrix"
         values="0 0 0 0 0 0 0 0 0 0 0 0 0 0 0 0 0 0 0.729412 0"
         id="feColorMatrix2" />
      <feBlend
         mode="normal"
         in2="BackgroundImageFix"
         result="effect1_dropShadow_1_2338"
         id="feBlend2" />
      <feBlend
         mode="normal"
         in="SourceGraphic"
         in2="effect1_dropShadow_1_2338"
         result="shape"
         id="feBlend3" />
    </filter>
  </defs>
</svg>
