<svg width="22" height="22" viewBox="0 0 22 22" fill="none" xmlns="http://www.w3.org/2000/svg">
<path d="M11.0004 0.921387C5.44309 0.921387 0.921875 5.4426 0.921875 10.9999V15.1754C0.921875 16.2074 1.82592 17.047 2.93757 17.047H3.94542C4.50204 17.047 4.95327 16.5957 4.95327 16.0391V10.8558C4.95327 10.2991 4.50204 9.84791 3.94542 9.84791H3.03029C3.59066 5.94753 6.9468 2.93708 11.0004 2.93708C15.0539 2.93708 18.4101 5.94753 18.9704 9.84791H18.0553C17.4987 9.84791 17.0475 10.2991 17.0475 10.8558V17.047C17.0475 18.1586 16.1434 19.0627 15.0318 19.0627H13.0161V18.0548H8.98467V21.0784H15.0318C17.2551 21.0784 19.0632 19.2703 19.0632 17.047C20.1748 17.047 21.0789 16.2074 21.0789 15.1754V10.9999C21.0789 5.4426 16.5576 0.921387 11.0004 0.921387Z" fill="white" stroke="white"/>
</svg>
