<svg width="17" height="18" viewBox="0 0 17 18" fill="none" xmlns="http://www.w3.org/2000/svg">
<path opacity="0.5" d="M8.43658 0.876099C3.85189 0.876099 0.135254 4.59273 0.135254 9.17743C0.135254 13.7621 3.85189 17.4788 8.43658 17.4788C13.0213 17.4788 16.7379 13.7621 16.7379 9.17743C16.733 4.59479 13.0192 0.881055 8.43658 0.876099ZM15.3544 9.17743C15.3552 10.5331 14.9552 11.8588 14.2046 12.9877L13.38 12.1624C13.3154 12.0976 13.279 12.0098 13.279 11.9183V11.2528C13.279 10.1066 12.3499 9.17743 11.2037 9.17743H9.12836C8.7463 9.17743 8.43658 8.86771 8.43658 8.48565V8.13976C8.43658 7.94873 8.59144 7.79387 8.78247 7.79387C9.73762 7.79387 10.5119 7.01958 10.5119 6.06443V5.37265C10.5119 5.18162 10.6668 5.02676 10.8578 5.02676H11.8118C12.27 5.02546 12.7092 4.84351 13.0341 4.52038L13.2949 4.25958C14.613 5.55648 15.3549 7.32835 15.3544 9.17743ZM1.55271 9.84361L3.73734 12.0282C4.12566 12.4191 4.65435 12.6381 5.20529 12.6363H7.05303C7.43509 12.6363 7.74481 12.946 7.74481 13.3281V16.0599C4.46461 15.7251 1.87473 13.1251 1.55271 9.84361ZM9.12836 16.0599V13.3281C9.12836 12.1819 8.1992 11.2528 7.05303 11.2528H5.20529C5.0216 11.2529 4.84539 11.18 4.71551 11.0501L1.63157 7.96613C2.03371 5.68012 3.55786 3.74929 5.68801 2.82734C7.81816 1.90538 10.2691 2.11576 12.2109 3.38725L12.056 3.54221C11.9908 3.60643 11.9032 3.64267 11.8118 3.64321L10.8578 3.64321C9.90266 3.64321 9.12836 4.41751 9.12836 5.37265L9.12836 6.06443C9.12836 6.25546 8.9735 6.41032 8.78247 6.41032C7.82733 6.41032 7.05303 7.18462 7.05303 8.13976V8.48565C7.05303 9.63183 7.98219 10.561 9.12836 10.561L11.2037 10.561C11.5858 10.561 11.8955 10.8707 11.8955 11.2528V11.9183C11.8968 12.3765 12.0787 12.8157 12.4019 13.1406L13.3268 14.0655C12.2002 15.196 10.7164 15.9009 9.12836 16.0599Z" fill="white"/>
</svg>
